<?xml version="1.0" encoding="UTF-8" standalone="no"?>
<!-- Created with Inkscape (http://www.inkscape.org/) -->

<svg
   xmlns:dc="http://purl.org/dc/elements/1.1/"
   xmlns:cc="http://creativecommons.org/ns#"
   xmlns:rdf="http://www.w3.org/1999/02/22-rdf-syntax-ns#"
   xmlns:svg="http://www.w3.org/2000/svg"
   xmlns="http://www.w3.org/2000/svg"
   xmlns:sodipodi="http://sodipodi.sourceforge.net/DTD/sodipodi-0.dtd"
   xmlns:inkscape="http://www.inkscape.org/namespaces/inkscape"
   id="svg3039"
   version="1.1"
   inkscape:version="0.48.3.1 r9886"
   width="400"
   height="400"
   sodipodi:docname="vicorob-logo-new-ng.pdf">
  <metadata
     id="metadata3045">
    <rdf:RDF>
      <cc:Work
         rdf:about="">
        <dc:format>image/svg+xml</dc:format>
        <dc:type
           rdf:resource="http://purl.org/dc/dcmitype/StillImage" />
        <dc:title></dc:title>
      </cc:Work>
    </rdf:RDF>
  </metadata>
  <defs
     id="defs3043" />
  <sodipodi:namedview
     pagecolor="#ffffff"
     bordercolor="#666666"
     borderopacity="1"
     objecttolerance="10"
     gridtolerance="10"
     guidetolerance="10"
     inkscape:pageopacity="0"
     inkscape:pageshadow="2"
     inkscape:window-width="1631"
     inkscape:window-height="1026"
     id="namedview3041"
     showgrid="false"
     inkscape:zoom="1.4972986"
     inkscape:cx="573.20471"
     inkscape:cy="18.85841"
     inkscape:window-x="49"
     inkscape:window-y="24"
     inkscape:window-maximized="1"
     inkscape:current-layer="svg3039" />
  <path
     style="fill:#ffffff;fill-opacity:1"
     d="M 208.15625 64.71875 C 207.80583 64.60471 206.90291 65.94403 205.9375 68.0625 C 202.65633 75.26254 199.41117 78.43105 193.625 79.96875 C 189.81227 80.98201 174.52418 81.57145 152.15625 81.59375 L 134.34375 81.625 L 130.6875 83.46875 C 126.10474 85.78016 123.55623 87.77244 121.0625 91.0625 C 117.43384 95.84995 115.01341 102.78378 114.25 110.53125 C 113.96071 113.46713 114.00535 113.9639 114.78125 114.53125 C 115.26593 114.88565 115.95913 115.04185 116.3125 114.90625 C 116.66587 114.7706 117.13676 114.6875 117.34375 114.6875 C 117.82719 114.6875 118.5481 112.72924 119.25 109.59375 C 119.9276 106.56679 122.70677 102.13696 125.0625 100.34375 C 129.07296 97.290935 131.51813 96.62708 139.75 96.21875 C 143.92644 96.01159 155.20211 95.83 164.8125 95.8125 C 184.94476 95.7759 191.90855 95.34646 195.09375 93.9375 C 196.32687 93.39203 198.54816 91.6413 200.21875 89.9375 C 203.02806 87.07234 204.30578 84.95798 207.09375 78.53125 L 208.125 76.1875 L 209 78.0625 C 209.48224 79.10146 210.53434 81.39345 211.34375 83.15625 C 213.11018 87.00337 217.38128 91.76303 220.6875 93.5625 C 223.76017 95.23486 229.76209 95.7681 246.03125 95.8125 C 263.93201 95.8614 284.01107 96.56816 285.96875 97.21875 C 286.88965 97.52479 288.80382 98.55325 290.21875 99.5 C 293.26853 101.54066 295.25392 104.60058 297.0625 110.03125 C 298.32866 113.8332 299.71296 115.44084 301.1875 114.875 C 302.23947 114.47133 302.37032 113.03535 301.75 108.71875 C 300.49085 99.956555 297.42096 93.09979 292.5625 88.1875 C 289.11758 84.70442 286.41278 83.20208 282.34375 82.53125 C 280.82051 82.28013 269.16477 81.85655 256.4375 81.59375 C 229.37533 81.03494 222.89444 80.62215 219.84375 79.15625 C 216.5609 77.5788 213.10637 73.71681 210.78125 69.03125 C 209.65973 66.7712 208.47806 64.82348 208.15625 64.71875 z M 226.40625 139.78125 C 225.17488 139.63831 215.54204 142.54433 213.125 143.78125 C 211.43227 144.6475 211.79246 145.46866 214.6875 147.25 C 215.96821 148.03803 217.24746 149.21077 217.5 149.875 C 217.75254 150.53923 217.9375 153.32088 217.9375 156.03125 C 217.9375 161.61462 217.88647 161.67946 214.5 159.9375 C 211.52481 158.40709 206.17103 158.20794 202.03125 159.46875 C 196.56856 161.13246 191.63111 165.00291 188.8125 169.8125 C 184.83169 176.60524 184.29181 190.02048 187.71875 197.09375 C 189.8087 201.40746 193.85408 205.16544 197.625 206.3125 C 199.45479 206.8691 206.88726 206.83707 209.21875 206.25 C 210.59685 205.903 212.43911 204.77285 214.625 202.9375 L 217.9375 200.15625 L 217.9375 202.53125 C 217.9375 205.9957 218.474 206.75 220.96875 206.75 C 225.56133 206.75 234.28326 204.43185 235.1875 202.96875 C 235.82884 201.93104 234.8965 200.625 233.53125 200.625 C 231.53165 200.625 230.72522 200.17955 229.9375 198.65625 C 228.82301 196.50107 228.35225 187.09435 228.28125 165.4375 C 228.24545 154.52841 228.10411 144.33969 227.9375 142.78125 C 227.65848 140.17147 227.53976 139.91284 226.40625 139.78125 z M 273.5625 143.9375 C 254.94961 143.9375 242.85823 155.78444 241.75 175.09375 C 241.21664 184.38669 244.28908 193.33469 249.96875 198.96875 C 253.1079 202.08268 259.70977 205.58319 263.75 206.28125 C 267.32536 206.89898 279.92096 206.47274 283.15625 205.625 C 284.60572 205.2452 287.47423 204.18775 289.53125 203.28125 L 293.28125 201.625 L 293.78125 193.125 C 294.41435 182.90354 294.84973 181.78283 298.34375 181.03125 C 301.02266 180.45501 301.75478 179.79443 301.375 178.28125 C 300.97456 176.6858 299.82787 176.53125 288.3125 176.53125 C 277.85947 176.53125 275.62365 176.75734 275.21875 177.8125 C 274.86349 178.73828 276.82181 180.66952 278.46875 181.03125 C 280.43512 181.46314 282.49292 183.37363 283.1875 185.40625 C 283.52514 186.39431 283.8002 189.46546 283.8125 192.4375 C 283.8341 197.63963 283.79314 197.73928 282.4375 199.15625 C 280.51487 201.16505 278.37519 201.77325 273.1875 201.78125 C 269.33966 201.78725 268.33993 201.61186 266.09375 200.5625 C 262.64314 198.95045 260.37406 196.90476 258.34375 193.5625 C 255.28794 188.5321 254.29672 185.14656 254 178.5 C 253.59941 169.52672 254.35206 163.90856 256.5 159.5625 C 258.53356 155.44786 261.59853 152.17852 264.9375 150.5625 C 267.78665 149.18354 274.78775 148.668 277.6875 149.625 C 280.31321 150.49156 284.95572 155.36781 286.90625 159.3125 C 288.44899 162.43246 288.63864 162.59375 290.1875 162.59375 C 291.70753 162.59375 291.834 162.47844 292.21875 160.71875 C 292.4455 159.67979 292.54863 156.75208 292.4375 154.21875 C 292.19308 148.64672 291.92482 148.29386 286.9375 146.375 C 282.33134 144.60279 278.78339 143.9375 273.5625 143.9375 z M 128.6875 144.65625 C 122.91202 144.65625 117.12699 144.79474 116.28125 145.03125 C 115.23309 145.32438 115 145.66688 115 146.8125 C 115 148.36701 116.23774 149.15625 118.71875 149.15625 C 121.94601 149.15625 122.31547 151.15799 123 172.0625 C 123.53885 188.51823 123.94916 192.57915 125.34375 195.65625 C 127.74093 200.94554 134.36027 205.5921 140.71875 206.4375 C 144.02071 206.87652 151.85129 206.69425 155.21875 206.09375 C 157.21705 205.7374 159.99669 204.82987 161.375 204.09375 C 165.07126 202.11969 169.44223 197.59248 170.40625 194.75 C 171.46895 191.6166 172.03698 184.62362 172.59375 168.28125 C 173.19837 150.53415 173.54096 149.15625 177.1875 149.15625 C 178.12046 149.15625 179.12358 148.75141 179.6875 148.1875 C 180.81092 147.06408 180.84908 146.76643 179.96875 145.5625 C 179.34218 144.70565 178.64413 144.65625 169.40625 144.65625 C 158.80051 144.65625 157.96875 144.84658 157.96875 147.0625 C 157.96875 148.41765 158.38886 148.66933 161.125 149.0625 C 165.4723 149.68718 165.95875 151.92516 165.96875 171.59375 C 165.97775 190.27044 165.41109 193.04153 160.75 197.03125 C 157.91306 199.45956 154.78278 200.4052 149.6875 200.375 C 146.16085 200.3541 144.99892 200.12346 142.84375 199.125 C 137.60283 196.69697 135.50658 193.13711 134.8125 185.4375 C 134.23993 179.08583 134.2439 161.40575 134.8125 156 C 135.36637 150.73392 136.1513 149.50327 139.21875 149.0625 C 142.04061 148.65701 142.375 148.43325 142.375 146.78125 C 142.375 145.67879 142.13133 145.32142 141.09375 145.03125 C 140.24801 144.79474 134.46297 144.65625 128.6875 144.65625 z M 162.375 240.4375 C 160.01585 240.44374 157.5 240.82904 157.5 241.28125 C 157.5 241.49268 157.97837 242.47988 158.5625 243.46875 C 159.45619 244.98171 159.63837 246.08567 159.78125 250.5625 C 159.98772 257.03164 159.69043 258.94321 158.1875 260.25 C 156.75752 261.49339 156.73718 261.92348 158.09375 262.46875 C 159.50219 263.03488 166.34404 263.08696 166.6875 262.53125 C 166.83571 262.29144 166.46242 261.27522 165.875 260.28125 C 164.898 258.62805 164.8125 257.88912 164.8125 251.625 C 164.8125 245.2799 164.89043 244.66158 165.875 243.28125 C 166.45942 242.46193 166.9375 241.59486 166.9375 241.34375 C 166.9375 241.09263 165.89245 240.73478 164.59375 240.5625 C 163.94162 240.476 163.16139 240.4355 162.375 240.4375 z M 152.8125 240.59375 C 152.06094 240.57138 151.23843 240.64849 150.53125 240.84375 C 148.80557 241.32024 148.57168 241.9981 149.8125 242.90625 C 150.59559 243.47944 150.60197 243.69765 149.84375 246.59375 C 148.82966 250.46745 147.15659 254.0696 146.46875 253.84375 C 145.63807 253.571 143.90229 250.28315 142.75 246.75 C 141.76463 243.72871 141.73785 243.48902 142.5 243.0625 C 143.6481 242.41998 143.50984 241.30651 142.25 241.03125 C 139.15254 240.35447 134.34375 240.57837 134.34375 241.40625 C 134.34375 242.2413 141.53062 257.24173 143.46875 260.46875 C 144.28774 261.83238 145.09956 262.96875 145.28125 262.96875 C 145.46294 262.96875 146.01335 262.07265 146.53125 260.96875 C 147.04916 259.86486 148.45288 256.72727 149.625 254 C 150.79712 251.27273 152.50696 247.44073 153.4375 245.5 C 154.36805 243.55928 155.125 241.74002 155.125 241.4375 C 155.125 240.96609 154.06509 240.63105 152.8125 240.59375 z M 249.28125 240.6875 C 247.14444 240.6674 245.46855 240.92155 244.53125 241.40625 C 241.06835 243.19699 239.1875 247.39413 239.1875 253.375 C 239.1875 256.79581 239.20701 256.87434 241.1875 259.03125 C 244.7445 262.90513 249.45483 264.00262 253.65625 261.96875 C 257.98649 259.87251 259.81628 256.19202 259.34375 250.46875 C 258.78598 243.71306 255.72895 240.7482 249.28125 240.6875 z M 180.90625 240.75 C 179.1506 240.75 176.98637 241.08657 175.875 241.53125 C 169.39817 244.12276 167.96561 256.50663 173.65625 260.75 C 176.07666 262.55484 177.73691 262.9587 182.1875 262.8125 C 185.62689 262.69952 186.50898 262.49102 187.3125 261.6875 C 188.01786 260.98214 188.28125 260.135 188.28125 258.5 C 188.28125 254.96017 186.94662 254.40979 185.65625 257.4375 C 184.85165 259.32538 183.14958 260.89534 181.46875 261.3125 C 179.5655 261.78487 177.17649 259.27325 176.125 255.65625 C 174.82213 251.17455 175.85028 245.05743 178.21875 243.25 C 178.63337 242.93359 179.89364 242.66425 181 242.65625 C 182.81883 242.64265 183.1423 242.83691 184.3125 244.53125 C 186.32858 247.45034 188.3125 247.58672 188.3125 244.8125 C 188.3125 242.22866 185.63461 240.75 180.90625 240.75 z M 268.5 240.75 C 262.55912 240.75 261.99931 240.99144 263.5625 242.71875 C 265.33455 244.6769 265.40588 258.67016 263.65625 260.6875 C 262.05749 262.53088 263.58915 262.97969 270.59375 262.71875 C 273.45089 262.61231 276.63776 262.29549 277.65625 262 C 280.44326 261.19142 282.15625 259.19849 282.15625 256.84375 C 282.15625 254.6095 281.23022 253.45071 278.6875 252.53125 C 276.6952 251.81083 276.58926 251.42328 278.09375 250.4375 C 280.35683 248.95468 280.99685 245.10157 279.34375 243 C 278.04251 241.34574 275.181 240.75 268.5 240.75 z M 220.84375 240.78125 C 218.89235 240.79307 217.28669 240.88054 216.8125 241.0625 C 215.83324 241.43828 215.84783 242.15543 216.875 242.90625 C 217.60591 243.44048 217.71875 244.44143 217.71875 251.53125 C 217.71875 258.78271 217.63544 259.65268 216.8125 260.5625 C 215.29506 262.24018 216.59212 262.81805 222.0625 262.90625 C 224.03263 262.93805 225.56814 262.763 225.75 262.46875 C 225.92241 262.18978 225.60803 261.4577 225.03125 260.84375 C 223.96829 259.71228 223.23986 256.12959 223.78125 254.71875 C 224.25032 253.49637 225.32908 254.39364 227.84375 258.03125 C 229.17086 259.95098 230.71438 261.85294 231.28125 262.25 C 232.34643 262.99608 234.39836 263.15247 236.25 262.65625 C 237.40636 262.34636 237.75087 260.59375 236.65625 260.59375 C 236.02778 260.59375 233.91134 258.25635 231.6875 255.0625 L 230.625 253.5 L 232.28125 251.96875 C 236.05865 248.4062 234.55471 242.659 229.5 241.28125 C 228.24985 240.94049 224.0961 240.76155 220.84375 240.78125 z M 203 240.8125 C 202.57812 240.8076 202.13989 240.82455 201.6875 240.84375 C 198.3454 240.9853 197.56147 241.18524 196.125 242.28125 C 193.6867 244.14165 192.74507 246.45158 192.53125 251.0625 C 192.39885 253.91757 192.5372 255.54263 193.09375 257 C 194.92434 261.79334 200.26919 264.04518 205.84375 262.375 C 210.36926 261.01912 213.05391 256.13392 212.65625 249.9375 C 212.2555 243.69283 209.32824 240.8848 203 240.8125 z M 115.84375 292.71875 C 115.08854 292.73861 114.3955 292.9769 114.21875 293.4375 C 113.76764 294.61306 114.98961 302.54713 116.21875 306.3125 C 118.09412 312.05754 120.05936 315.35803 123.6875 318.96875 C 127.7822 323.0438 131.09724 324.76773 135.875 325.3125 C 137.77267 325.52888 149.77052 325.82797 162.5625 326 C 189.30912 326.35968 192.78923 326.59702 196.03125 328.15625 C 199.77894 329.95869 203.48526 334.02856 205.65625 338.75 C 207.89696 343.62306 208.69311 343.84775 210 339.9375 C 211.10021 336.64567 213.64454 333.26052 217.1875 330.40625 C 221.9042 326.6064 221.33982 326.6793 247.46875 326.1875 C 278.74917 325.59874 283.10333 325.33171 286.65625 323.59375 C 290.62508 321.65234 294.70525 317.34245 297.375 312.25 C 299.90461 307.42483 300.80484 304.59416 301.78125 298.5625 C 302.6376 293.27241 302.4765 292.62119 300.1875 292.8125 C 298.48014 292.9552 298.45329 292.94591 297.03125 297.1875 C 295.00346 303.23591 291.88958 307.39059 287.75 309.53125 C 285.65125 310.61656 279.62192 310.9953 260.4375 311.34375 C 239.52353 311.7236 226.03047 312.327 222.65625 313.03125 C 218.73978 313.84867 216.37488 315.43991 214.40625 318.5625 C 212.04022 322.31543 209.59569 327.57419 209.1875 329.75 L 208.84375 331.5625 L 207.96875 330.4375 C 207.49091 329.81602 207.09975 329.14778 207.09375 328.9375 C 207.08775 328.72722 206.23999 326.81487 205.21875 324.6875 C 203.21692 320.5174 199.68068 315.97782 197 314.15625 C 194.72323 312.60914 189.65719 312.22988 162.21875 311.59375 C 140.15542 311.08222 131.18319 310.58884 128.8125 309.6875 C 124.84767 308.18008 120.59019 302.74898 119.1875 297.40625 C 118.69656 295.5363 118.07627 293.69923 117.78125 293.34375 C 117.41091 292.89751 116.59896 292.69885 115.84375 292.71875 z "
     id="path3925" />
  <path
     style="fill:#001a83;fill-opacity:1"
     d="m 208.03866,163.22316 c -2.24051,0.0491 -4.45223,0.93456 -6.53125,2.6875 -3.71713,3.13414 -5.31035,7.6888 -5.34375,15.40625 -0.0249,5.75832 0.29839,7.9009 1.5625,10.625 1.20687,2.60076 4.70917,6.17147 7.15625,7.3125 2.36902,1.10462 5.07673,0.91326 9.75,-0.6875 l 3.09375,-1.0625 0.125,-14.34375 0.125,-14.34375 -1.5625,-1.625 c -2.6002,-2.70629 -5.49434,-4.03195 -8.375,-3.96875 z"
     id="path3917"
     inkscape:connector-curvature="0" />
  <path
     style="fill:#001a83;fill-opacity:1"
     d="m 249.25741,242.19176 c -0.857,-0.0232 -1.68649,0.34152 -2.34375,1.0625 -1.46603,1.60816 -2.21975,4.4464 -2.21875,8.375 0.001,4.86176 0.41052,6.63178 2.03125,8.40625 1.61156,1.76442 2.71858,1.88336 4.4375,0.53125 3.29421,-2.59123 3.64689,-13.82567 0.53125,-17.1875 -0.70231,-0.75781 -1.58049,-1.16429 -2.4375,-1.1875 z"
     id="path3901"
     inkscape:connector-curvature="0" />
  <path
     style="fill:#001a83;fill-opacity:1"
     d="m 201.85116,242.22296 c -1.15993,0.12269 -2.28984,1.06968 -3.1875,2.8125 -0.9686,1.88054 -1.06364,2.62278 -0.90625,6.59375 0.19237,4.85315 1.21491,7.74018 3.28125,9.1875 1.49634,1.04807 2.61002,0.92744 3.875,-0.4375 2.59158,-2.79637 3.25046,-10.5899 1.21875,-14.6875 -1.21786,-2.45621 -2.7899,-3.62649 -4.28125,-3.46875 z"
     id="path3899"
     inkscape:connector-curvature="0" />
  <path
     style="fill:#001a83;fill-opacity:1"
     d="m 225.16366,242.81671 c -1.01436,0.0299 -1.30871,1.20592 -1.46875,4.375 -0.14543,2.88001 -0.0409,3.70175 0.625,4.4375 0.60069,0.66375 1.05576,0.79012 1.65625,0.46875 1.47388,-0.7888 3.78125,-3.7806 3.78125,-4.90625 0,-1.4632 -1.5102,-3.31596 -3.3125,-4.0625 -0.51743,-0.21433 -0.94313,-0.32247 -1.28125,-0.3125 z"
     id="path3897"
     inkscape:connector-curvature="0" />
  <path
     style="fill:#001a83;fill-opacity:1"
     d="m 271.94491,243.19171 c -0.61575,0.0222 -1.10262,0.33343 -1.28125,1 -0.37016,1.38126 -0.3653,4.32931 0,5.28125 0.81962,2.1359 5.77113,-0.91416 5.125,-3.15625 -0.53343,-1.851 -2.48911,-3.17381 -3.84375,-3.125 z"
     id="path3895"
     inkscape:connector-curvature="0" />
  <path
     style="fill:#001a83;fill-opacity:1"
     d="m 272.81991,252.75421 c -1.58962,-0.10379 -1.96875,0.86886 -1.96875,4.09375 0,2.71946 0.14556,3.32966 0.96875,3.90625 1.29343,0.90595 2.54429,0.51715 4.03125,-1.25 0.97229,-1.15553 1.17788,-1.77378 0.96875,-3.0625 -0.3332,-2.05331 -1.39368,-3.19123 -3.25,-3.5625 -0.27816,-0.0556 -0.52291,-0.11017 -0.75,-0.125 z"
     id="path3893"
     inkscape:connector-curvature="0" />
</svg>
